<mxfile host="app.diagrams.net" modified="2023-09-18T01:57:09.088Z" agent="Mozilla/5.0 (Windows NT 10.0; Win64; x64) AppleWebKit/537.36 (KHTML, like Gecko) Chrome/116.0.0.0 Safari/537.36" etag="jOZZ0kcAMM0zvM8RXRfm" version="21.7.5" type="github">
  <diagram name="第 1 页" id="L6XU-YJSm6NN8EeBNm4k">
    <mxGraphModel dx="2049" dy="1083" grid="1" gridSize="10" guides="1" tooltips="1" connect="1" arrows="1" fold="1" page="1" pageScale="1" pageWidth="827" pageHeight="1169" math="0" shadow="0">
      <root>
        <mxCell id="0" />
        <mxCell id="1" parent="0" />
        <mxCell id="aYSDuqsWhtXODDXYn9be-1" value="&lt;font style=&quot;font-size: 18px;&quot;&gt;为什么使用B+树作为存储数据结构呢？普通二叉树、B树、红黑树为什呢不行？&lt;br&gt;&lt;br&gt;B+树结构和B树结构的区别？它们的叶子结点和非叶子结点存储的是什么？&lt;br&gt;&lt;/font&gt;" style="rounded=0;whiteSpace=wrap;html=1;verticalAlign=top;align=left;" vertex="1" parent="1">
          <mxGeometry x="50" y="60" width="740" height="120" as="geometry" />
        </mxCell>
        <mxCell id="aYSDuqsWhtXODDXYn9be-2" value="&lt;font style=&quot;font-size: 18px;&quot;&gt;Mysql有2中存储引擎分别是什么？物理结构上如何区分？逻辑结构上有什么不同？&lt;br&gt;&lt;br&gt;Mysql中为什么要建议搞一个连续递增的主键呢？如果没有主键，数据库会先从列中找一个没有重复数据的列作为主键，如果没有满足的列，那么就会自己维护一个隐藏自增列作为主键？&lt;br&gt;&lt;/font&gt;" style="rounded=0;whiteSpace=wrap;html=1;verticalAlign=top;align=left;" vertex="1" parent="1">
          <mxGeometry x="44" y="230" width="740" height="120" as="geometry" />
        </mxCell>
        <mxCell id="aYSDuqsWhtXODDXYn9be-3" value="&lt;font style=&quot;font-size: 18px;&quot;&gt;聚簇索引和非聚簇索引的区别？&lt;br&gt;&lt;br&gt;二级索引是什么意思？二级索引回表操作是什么意思？二级索引的叶子结点存的是什么？&lt;br&gt;&lt;br&gt;&lt;/font&gt;" style="rounded=0;whiteSpace=wrap;html=1;verticalAlign=top;align=left;" vertex="1" parent="1">
          <mxGeometry x="44" y="420" width="740" height="120" as="geometry" />
        </mxCell>
      </root>
    </mxGraphModel>
  </diagram>
</mxfile>
